[Header]
FileType HTR
DataType HTRS
FileVersion 1
NumSegments 22
NumFrames 4
DataFrameRate 24
EulerRotationOrder ZYX
CalibrationUnits mm
RotationUnits Degrees
GlobalAxisofGravity Y
BoneLengthAxis Y
ScaleFactor 1.0
[SegmentNames&Hierarchy]
reference	GLOBAL
Hips	reference
Spine	Hips
Spine1	Spine
Neck	Spine1
Head	Neck
LeftShoulder	Spine1
LeftArm	LeftShoulder
LeftForeArm	LeftArm
LeftHand	LeftForeArm
RightShoulder	Spine1
RightArm	RightShoulder
RightForeArm	RightArm
RightHand	RightForeArm
LeftUpLeg	Hips
LeftLeg	LeftUpLeg
LeftFoot	LeftLeg
LeftToeBase	LeftFoot
RightUpLeg	Hips
RightLeg	RightUpLeg
RightFoot	RightLeg
RightToeBase	RightFoot
[BasePosition]
reference	0	0	0	0	0	0	1
Hips	0	0	0	0	0	0	1
Spine	0	0	0	-0	-90	0	1
Spine1	0	0	0	0	0	0	1
Neck	0	0	0	82.64767223	-82.64767223	-90	1
Head	0	0	0	-0	-90	0	1
LeftShoulder	0	0	0	0	0	0	1
LeftArm	0	0	0	0	0	0	1
LeftForeArm	0	0	0	0	0	0	1
LeftHand	0	0	0	0	0	0	1
RightShoulder	0	0	0	0	-0	180	1
RightArm	0	0	0	0	-0	180	1
RightForeArm	0	0	0	0	-0	180	1
RightHand	0	0	0	0	-0	180	1
LeftUpLeg	0	0	0	-0	90	0	1
LeftLeg	0	0	0	-0	90	0	1
LeftFoot	0	0	0	-23.42853957	23.42853957	-90	1
LeftToeBase	0	0	0	0	-0	-90	1
RightUpLeg	0	0	0	-0	90	0	1
RightLeg	0	0	0	-0	90	0	1
RightFoot	0	0	0	-23.42853957	23.42853957	-90	1
RightToeBase	0	0	0	0	-0	-90	1
[reference]
1	0	0	0	0	-0	0	1.0
2	0	0	0	0	-0	0	1.0
3	0	0	0	0	-0	0	1.0
4	0	0	0	0	-0	0	1.0
[Hips]
1	4.402470112	-0.4035200179	8.361189842	2.699042559	2.015289783	-117.2881012	1.0
2	4.439502239	-0.2844023407	8.361189842	2.872265816	2.049383879	-116.7167206	1.0
3	4.546854496	0.00719249947	8.332249641	3.501635313	1.690864921	-115.1403656	1.0
4	4.678395271	0.3134313226	8.242402077	3.847192049	0.9125962853	-113.7517166	1.0
[Spine]
1	0	0	0.7457100153	-76.33017731	92.9288559	-66.543396	1.0
2	0	0	0.7457100153	-86.35704041	92.52396393	-76.65175629	1.0
3	0	0	0.7457100153	-103.7956848	91.7243042	-94.31227112	1.0
4	0	0	0.7457100153	-90.65234375	91.77165985	-81.45579529	1.0
[Spine1]
1	0	0	2.140589952	5.683828354	-0.3512804508	0.9112119079	1.0
2	0	0	2.140589952	4.885971069	0.3504832089	0.8338309526	1.0
3	0	0	2.140589952	2.991750002	2.057160616	0.6281961799	1.0
4	0	0	2.140589952	2.815711498	2.736587763	0.6569223404	1.0
[Neck]
1	0	0	2.32246995	65.82210541	82.1254425	74.26799774	1.0
2	0	0	2.32246995	66.19515991	81.7574234	74.05329132	1.0
3	0	0	2.32246995	66.91114807	80.8636322	73.76037598	1.0
4	0	0	2.32246995	65.44225311	80.64640808	73.52593231	1.0
[Head]
1	0	-0.1818799973	1.409579992	-17.06658936	91.40058136	-15.28022766	1.0
2	0	-0.1818799973	1.409579992	-28.87668228	91.64277649	-27.03473663	1.0
3	0	-0.1818799973	1.409579992	-48.64387131	92.32925415	-46.21993637	1.0
4	0	-0.1818799973	1.409579992	-33.73202896	93.38693237	-30.93068695	1.0
[LeftShoulder]
1	0.3668199778	0.02662999928	1.946700096	-16.14123154	1.465788245	-11.4533844	1.0
2	0.3668199778	0.02662999928	1.946700096	-16.61906433	1.291567683	-11.24356747	1.0
3	0.3668199778	0.02662999928	1.946700096	-15.61309814	1.708361983	-11.24428368	1.0
4	0.3668199778	0.02662999928	1.946700096	-16.71377182	1.335713983	-11.29415512	1.0
[LeftArm]
1	1.140689969	0	0	76.74916077	68.61183167	31.45568085	1.0
2	1.140689969	0	0	78.64812469	68.31942749	32.83234406	1.0
3	1.140689969	0	0	73.85005951	67.87805176	28.77187729	1.0
4	1.140689969	0	0	73.41718292	67.97727966	28.36799049	1.0
[LeftForeArm]
1	2.749800205	0	0	24.44664001	-14.60401535	-131.5717773	1.0
2	2.749800205	0	0	25.54122162	-15.15254688	-131.906189	1.0
3	2.749800205	0	0	26.14676666	-15.33032799	-132.8257446	1.0
4	2.749800205	0	0	26.88757706	-15.46094227	-132.7802124	1.0
[LeftHand]
1	2.295179844	0	0	-6.64942646	-3.660857677	-21.86776352	1.0
2	2.295179844	0	0	-6.832862854	-4.225869179	-22.0377121	1.0
3	2.295179844	0	0	-7.12474966	-5.160611153	-21.58990479	1.0
4	2.295179844	0	0	-6.370053768	-6.463075638	-21.74763107	1.0
[RightShoulder]
1	-0.3601199985	0.02662999928	1.946700096	-8.082873344	4.40667057	-176.3526306	1.0
2	-0.3601199985	0.02662999928	1.946700096	-7.980490685	4.304929256	-176.0111389	1.0
3	-0.3601199985	0.02662999928	1.946700096	-7.676983833	3.989906311	-175.3471069	1.0
4	-0.3601199985	0.02662999928	1.946700096	-8.314375877	4.557200432	-175.5979767	1.0
[RightArm]
1	-1.140689969	0	0	-116.432663	-103.6554642	-5.611587524	1.0
2	-1.140689969	0	0	-117.7779465	-104.1239624	-4.280521393	1.0
3	-1.140689969	0	0	-122.3460922	-104.9872742	-0.06358337402	1.0
4	-1.140689969	0	0	-123.4994431	-104.5612946	1.240201831	1.0
[RightForeArm]
1	-2.749800205	0	0	46.02625275	23.96739197	-52.81289673	1.0
2	-2.749800205	0	0	46.00643158	23.6808548	-52.71617126	1.0
3	-2.749800205	0	0	46.38729477	23.06802368	-52.66293716	1.0
4	-2.749800205	0	0	47.14180756	23.16889191	-52.25019836	1.0
[RightHand]
1	-2.295179844	0	0	2.772708178	16.98307991	-159.8759613	1.0
2	-2.295179844	0	0	3.267224789	17.55854988	-159.9615021	1.0
3	-2.295179844	0	0	4.835163116	18.45701408	-160.1225281	1.0
4	-2.295179844	0	0	5.112458229	18.71623993	-159.9627533	1.0
[LeftUpLeg]
1	0.9094099998	0	0	41.15133667	-98.59774017	-34.44381714	1.0
2	0.9094099998	0	0	36.13056946	-99.07972717	-29.37189102	1.0
3	0.9094099998	0	0	32.46357727	-100.7143707	-26.40396881	1.0
4	0.9094099998	0	0	31.21183205	-102.171524	-26.18941689	1.0
[LeftLeg]
1	0	0	-4.498080254	7.611710072	-85.47344971	-2.528462172	1.0
2	0	0	-4.498080254	5.082488537	-85.86149597	-0.4508187175	1.0
3	0	0	-4.498080254	-0.7956285477	-86.65301514	5.121080399	1.0
4	0	0	-4.498080254	-21.88645363	-87.26261139	26.88347054	1.0
[LeftFoot]
1	0	0	-3.729400158	-48.38763428	-1.403579473	107.4109116	1.0
2	0	0	-3.729400158	-47.46157074	-0.889038682	106.6391449	1.0
3	0	0	-3.729400158	-46.6313591	-0.0989625752	104.2183456	1.0
4	0	0	-3.729400158	-46.7334404	0.5782373548	101.341507	1.0
[LeftToeBase]
1	0	-1.364109993	-0.5911099911	-9.999999975e-007	0	0	1.0
2	0	-1.364109993	-0.5911099911	-9.999999975e-007	0	0	1.0
3	0	-1.364109993	-0.5911099911	-9.999999975e-007	0	0	1.0
4	0	-1.364109993	-0.5911099911	-9.999999975e-007	0	0	1.0
[RightUpLeg]
1	-0.9094099998	0	0	35.03199387	-71.49630737	-42.40352249	1.0
2	-0.9094099998	0	0	34.56607056	-72.15785217	-42.03814697	1.0
3	-0.9094099998	0	0	37.6664505	-72.75215149	-46.17490387	1.0
4	-0.9094099998	0	0	45.95779037	-71.21179199	-56.43067169	1.0
[RightLeg]
1	0	0	-4.498080254	64.29888916	-77.58959198	-59.73625565	1.0
2	0	0	-4.498080254	61.66898346	-78.91042328	-54.73849106	1.0
3	0	0	-4.498080254	64.37715149	-78.23577118	-52.6558609	1.0
4	0	0	-4.498080254	65.27298737	-77.5707016	-48.53742599	1.0
[RightFoot]
1	0	0	-3.729400158	-14.77626324	-42.82420349	103.4769974	1.0
2	0	0	-3.729400158	-19.84129715	-43.78830719	104.4197922	1.0
3	0	0	-3.729400158	-29.90563202	-42.45333862	106.2098694	1.0
4	0	0	-3.729400158	-41.65003586	-39.3344574	110.3299713	1.0
[RightToeBase]
1	0	-1.364109993	-0.5911099911	0	-9.999999975e-007	-9.999999975e-007	1.0
2	0	-1.364109993	-0.5911099911	0	-9.999999975e-007	-9.999999975e-007	1.0
3	0	-1.364109993	-0.5911099911	0	-9.999999975e-007	-9.999999975e-007	1.0
4	0	-1.364109993	-0.5911099911	0	-9.999999975e-007	-9.999999975e-007	1.0
[EndOfFile]
